<svg xmlns="http://www.w3.org/2000/svg" viewBox="0 0 64 64">
  <defs>
    <linearGradient id="tile" x1="7" y1="5" x2="57" y2="60" gradientUnits="userSpaceOnUse">
      <stop stop-color="#8f82ff"/>
      <stop offset="1" stop-color="#5547c7"/>
    </linearGradient>
    <linearGradient id="nori" x1="17" y1="14" x2="48" y2="51" gradientUnits="userSpaceOnUse">
      <stop stop-color="#204943"/>
      <stop offset="1" stop-color="#0a2028"/>
    </linearGradient>
  </defs>
  <rect width="64" height="64" rx="15" fill="#0b1020"/>
  <rect x="5" y="5" width="54" height="54" rx="13" fill="url(#tile)"/>
  <path d="M17 14.5c8-1.2 22.3-1.2 30.4.1 1.6.3 2.7 1.6 2.8 3.1.6 8.8.6 19.7-.1 28.5-.1 1.6-1.3 2.8-2.8 3.1-8.4 1.2-22.2 1.2-30.4 0-1.6-.2-2.8-1.5-2.9-3.1-.7-8.8-.7-19.7 0-28.5.1-1.6 1.3-2.9 3-3.2Z" fill="url(#nori)" stroke="#8ee0c3" stroke-width="1.5"/>
  <path d="M21 43V21h6.1L38 34.8V21h5v22h-5.4L26 28.5V43h-5Z" fill="#f2f8e9"/>
</svg>
